<svg width="15" height="15" viewBox="0 0 15 15" fill="none" xmlns="http://www.w3.org/2000/svg">
<g clip-path="url(#clip0_1_248)">
<path fill-rule="evenodd" clip-rule="evenodd" d="M7.49982 1.35033C9.5027 1.35033 9.73994 1.35795 10.5309 1.39404C11.2622 1.42741 11.6594 1.54961 11.9238 1.6523C12.2739 1.78836 12.5237 1.95093 12.7862 2.21338C13.0487 2.47584 13.2112 2.72573 13.3473 3.07581C13.45 3.34015 13.5722 3.7373 13.6056 4.46858C13.6417 5.25952 13.6493 5.49673 13.6493 7.4995C13.6493 9.50227 13.6417 9.73948 13.6056 10.5304C13.5722 11.2617 13.45 11.6588 13.3473 11.9232C13.2112 12.2733 13.0487 12.5232 12.7862 12.7856C12.5237 13.0481 12.2739 13.2106 11.9238 13.3467C11.6594 13.4494 11.2622 13.5716 10.5309 13.605C9.74006 13.641 9.50281 13.6487 7.49982 13.6487C5.49683 13.6487 5.25957 13.641 4.46873 13.605C3.73739 13.5716 3.34019 13.4494 3.07587 13.3467C2.72575 13.2106 2.47581 13.0481 2.21333 12.7856C1.95086 12.5232 1.78838 12.2733 1.65234 11.9232C1.54961 11.6588 1.42743 11.2617 1.39405 10.5304C1.35797 9.73948 1.35033 9.50227 1.35033 7.4995C1.35033 5.49673 1.35797 5.25952 1.39405 4.46861C1.42743 3.7373 1.54961 3.34015 1.65234 3.07581C1.78838 2.72573 1.95086 2.47584 2.21333 2.21338C2.47581 1.95093 2.72575 1.78836 3.07587 1.6523C3.34019 1.54961 3.73742 1.42741 4.46873 1.39404C5.25972 1.35795 5.49694 1.35033 7.49982 1.35033ZM7.97326 -0.000976562C8.04645 -0.000911031 8.11691 -0.000825115 8.18475 -0.000722647L8.72994 0.000754356C9.69873 0.00489389 9.99244 0.016593 10.5925 0.0439701C11.3909 0.0804134 11.9361 0.20719 12.4132 0.392622C12.9065 0.584306 13.3249 0.84078 13.7419 1.25776C14.1589 1.67475 14.4154 2.09304 14.6071 2.58627C14.7925 3.0634 14.9193 3.60862 14.9558 4.40701C14.9634 4.57367 14.9697 4.7167 14.9751 4.85713L14.981 5.02574C14.9929 5.39419 14.9982 5.80194 15 6.61867V8.38033C14.9983 9.13424 14.9937 9.53965 14.9837 9.88736L14.9782 10.0578C14.9722 10.226 14.9649 10.392 14.9558 10.592C14.9193 11.3904 14.7925 11.9356 14.6071 12.4127C14.4154 12.906 14.1589 13.3242 13.7419 13.7412C13.3249 14.1582 12.9065 14.4147 12.4132 14.6064C11.9361 14.7918 11.3909 14.9186 10.5925 14.955C10.4258 14.9626 10.2827 14.969 10.1423 14.9744L9.97369 14.9803C9.60521 14.9922 9.19745 14.9975 8.38067 14.9993H6.61897C5.3624 14.9965 5.07389 14.9854 4.40717 14.955C3.60873 14.9186 3.06345 14.7918 2.5863 14.6064C2.09304 14.4147 1.67475 14.1582 1.25775 13.7412C0.840742 13.3242 0.584278 12.9059 0.392578 12.4127C0.207141 11.9356 0.0803173 11.3904 0.0438766 10.592C0.0347454 10.392 0.02739 10.226 0.0214462 10.0578L0.0159531 9.88736C0.00759056 9.5976 0.00291486 9.26777 0.000617981 8.72959L-0.00075531 8.18443C-0.000858435 8.11659 -0.00103301 8.04617 -0.00109863 7.97299V7.026C-0.00103301 6.95283 -0.000858435 6.8824 -0.00075531 6.81457L0.000617981 6.26941C0.00475236 5.30068 0.0164923 5.007 0.0438766 4.40701C0.0803173 3.60862 0.207141 3.0634 0.392578 2.58627C0.584278 2.09304 0.840742 1.67475 1.25775 1.25776C1.67475 0.84078 2.09304 0.584306 2.5863 0.392622C3.06345 0.20719 3.60873 0.0804134 4.40717 0.0439701C5.00721 0.016593 5.3008 0.00489389 6.26958 0.000754356L6.81477 -0.000722647C6.88261 -0.000825115 6.95307 -0.000911031 7.02626 -0.000976562H7.97326ZM7.51469 3.65986C5.3858 3.65986 3.65998 5.38559 3.65998 7.51437C3.65998 9.64314 5.3858 11.3689 7.51469 11.3689C9.64358 11.3689 11.3694 9.64314 11.3694 7.51437C11.3694 5.38559 9.64358 3.65986 7.51469 3.65986ZM7.51469 5.01232C8.89659 5.01232 10.0168 6.13254 10.0168 7.51437C10.0168 8.89619 8.89659 10.0164 7.51469 10.0164C6.13279 10.0164 5.01256 8.89619 5.01256 7.51437C5.01256 6.13254 6.13279 5.01232 7.51469 5.01232ZM11.4884 2.58834C10.9952 2.58834 10.5954 2.98811 10.5954 3.48126C10.5954 3.97442 10.9952 4.37421 11.4884 4.37421C11.9816 4.37421 12.3814 3.97442 12.3814 3.48126C12.3814 2.98811 11.9816 2.58834 11.4884 2.58834Z" fill="#FFFFFF"/>
</g>
<defs>
<clipPath id="clip0_1_248">
<rect width="15" height="15" fill="white"/>
</clipPath>
</defs>
</svg>
